Sprint_05400001_forces_filt100Hz.mot
version=1
nRows=19
nColumns=19
inDegrees=yes
endheader
time	R_ground_force_vx	R_ground_force_vy	R_ground_force_vz	R_ground_force_px	R_ground_force_py	R_ground_force_pz	R_ground_torque_x	R_ground_torque_y	R_ground_torque_z	L_ground_force_vx	L_ground_force_vy	L_ground_force_vz	L_ground_force_px	L_ground_force_py	L_ground_force_pz	L_ground_torque_x	L_ground_torque_y	L_ground_torque_z	
0.000000	186.855770	2240.338151	-110.797495	  0.792296	  0.000000	 -0.264003	  0.000000	 96.740034	  0.000000	  0.000000	  0.000000	  0.000000	  0.680269	  0.000000	 -0.401841	  0.000000	  0.000000	  0.000000
0.000500	187.399526	2226.500255	-98.220606	  0.790889	  0.000000	 -0.263342	  0.000000	 92.089629	  0.000000	  0.000000	  0.000000	  0.000000	  0.683135	 -0.000000	 -0.401944	  0.000000	  0.000000	  0.000000
0.001000	188.327243	2212.628336	-85.813556	  0.789398	  0.000000	 -0.262692	  0.000000	 87.064807	  0.000000	  0.000000	  0.000000	  0.000000	  0.686000	 -0.000000	 -0.402047	  0.000000	  0.000000	  0.000000
0.001500	189.833457	2198.906181	-73.871592	  0.787830	  0.000000	 -0.262074	  0.000000	 81.604947	  0.000000	  0.000000	  0.000000	  0.000000	  0.688865	 -0.000000	 -0.402150	  0.000000	  0.000000	  0.000000
0.002000	192.053991	2185.512708	-62.711974	  0.786184	  0.000000	 -0.261514	  0.000000	 75.678257	  0.000000	  0.000000	  0.000000	  0.000000	  0.691730	 -0.000000	 -0.402253	  0.000000	  0.000000	  0.000000
0.002500	195.039122	2172.587657	-52.644188	  0.784457	  0.000000	 -0.261039	  0.000000	 69.291489	  0.000000	  0.000000	  0.000000	  0.000000	  0.694595	  0.000000	 -0.402356	  0.000000	  0.000000	  0.000000
0.003000	198.750708	2160.202141	-43.942834	  0.782639	  0.000000	 -0.260677	  0.000000	 62.494170	  0.000000	  0.000000	  0.000000	  0.000000	  0.697460	  0.000000	 -0.402459	  0.000000	  0.000000	  0.000000
0.003500	203.084401	2148.342572	-36.821355	  0.780727	  0.000000	 -0.260453	  0.000000	 55.377235	  0.000000	  0.000000	  0.000000	  0.000000	  0.700325	  0.000000	 -0.402562	  0.000000	  0.000000	  0.000000
0.004000	207.908396	2136.911958	-31.407540	  0.778726	  0.000000	 -0.260386	  0.000000	 48.064949	  0.000000	  0.000000	  0.000000	  0.000000	  0.703190	  0.000000	 -0.402665	  0.000000	  0.000000	  0.000000
0.004500	213.100660	2125.750493	-27.724293	  0.776658	  0.000000	 -0.260487	  0.000000	 40.698539	  0.000000	  0.000000	  0.000000	  0.000000	  0.706055	  0.000000	 -0.402768	  0.000000	  0.000000	  0.000000
0.005000	218.572739	2114.670586	-25.678109	  0.774557	  0.000000	 -0.260753	  0.000000	 33.414097	  0.000000	  0.000000	  0.000000	  0.000000	  0.708921	  0.000000	 -0.402871	  0.000000	  0.000000	  0.000000
0.005500	224.273761	2103.492190	-25.057603	  0.772465	  0.000000	 -0.261166	  0.000000	 26.321118	  0.000000	  0.000000	  0.000000	  0.000000	  0.711936	  0.000000	 -0.402730	  0.000000	  0.000000	  0.000000
0.006000	230.176981	2092.066722	-25.543451	  0.770414	  0.000000	 -0.261695	  0.000000	 19.487305	  0.000000	  0.000000	  0.000000	  0.000000	  0.714952	  0.000000	 -0.402589	  0.000000	  0.000000	  0.000000
0.006500	236.259554	2080.281567	-26.729583	  0.768425	  0.000000	 -0.262299	  0.000000	 12.935206	  0.000000	  0.000000	  0.000000	  0.000000	  0.717967	  0.000000	 -0.402447	  0.000000	  0.000000	  0.000000
0.007000	242.484364	2068.048270	-28.155216	  0.766499	  0.000000	 -0.262928	  0.000000	  6.651976	  0.000000	  0.000000	  0.000000	  0.000000	  0.720983	  0.000000	 -0.402306	  0.000000	  0.000000	  0.000000
0.007500	248.791734	2055.287506	-29.347396	  0.764625	  0.000000	 -0.263529	  0.000000	  0.608527	  0.000000	  0.000000	  0.000000	  0.000000	  0.723998	  0.000000	 -0.402165	  0.000000	  0.000000	  0.000000
0.008000	255.103841	2041.919576	-29.870875	  0.762786	  0.000000	 -0.264050	  0.000000	 -5.217933	  0.000000	  0.000000	  0.000000	  0.000000	  0.727014	  0.000000	 -0.402023	  0.000000	  0.000000	  0.000000
0.008500	261.339790	2027.865480	-29.378476	  0.760971	  0.000000	 -0.264443	  0.000000	-10.825408	  0.000000	  0.000000	  0.000000	  0.000000	  0.730029	  0.000000	 -0.401882	  0.000000	  0.000000	  0.000000
0.009000	267.436627	2013.058428	-27.653104	  0.759181	  0.000000	 -0.264670	  0.000000	-16.176917	  0.000000	  0.000000	  0.000000	  0.000000	  0.733045	  0.000000	 -0.401741	  0.000000	  0.000000	  0.000000
